<svg xmlns="http://www.w3.org/2000/svg" width="1149" height="76" viewBox="0 0 1149 76"><path class="cls-1" d="M0 0c23.052-.425 56.192-3.443 70 6 2.323 9.01 3.04 25.623 1 36-10.65 13.876-38.135 4.12-58 9v25H0zm122 31 48-1V0h13v76h-13l-1-31-47 1v30h-14l1-76 13 1zM250 0h17l37 76h-16l-29-62-2 1c-2.423 12.142-21.2 53.3-29 61h-15v-1Zm83 0c5.577-.354 12.318-.643 15 2l43 52h1V0l13 1v75h-15l-43-54h-1v54h-13zm174 0v14l-29 1v61h-13l-1-62-29-1 1-13zm63 0c58.407-2.268 63.085 65.567 15 76-31.942 6.931-58.486-25-46-53 5.991-13.436 16.367-19.743 31-23m76 0h17c6.677 9.134 18.671 28.4 30 32 9.666-10.666 21.334-21.334 31-32h16v76h-15l-1-53-2 1-25 34c-5.533.138-7.88.541-11-1-7.666-10.332-16.334-21.668-24-32h-1v51h-15zm131 0h14l18 48 2-1 16-47c6.209-.229 11.4.237 15 2l17 46h1l17-48h14l-27 76h-11l-19-52h-1l-18 52h-12Zm148 0h13v76h-13zm50 0c45.07-1.38 90.69-12.4 76 43-5.26 3.816-8.97 4.852-16 8l3 3 18 22h-16q-17.505-19-35-38v-1h34V14h-50v62h-14zm174 0v14l-67-1q.495-6.5 1-13zM13 12v25h47l-1-25zm559 1c-37.246 9.174-21.116 60.4 13 51 29.931-8.248 23.955-52.747-13-51m511 19 56 1c-.33 3.666-.67 7.334-1 11l-56-1c.33-3.666.67-7.334 1-11m-1 32h67v12h-67z"/></svg>