<svg xmlns="http://www.w3.org/2000/svg" width="574" height="809" viewBox="0 0 574 809"><path d="M337 3c152-.622 88.028 160.684 130 270 20.033 52.174 83.084 64.307 100 109 25.252 66.718-94.93 182.376-141 184 33.1-31.31 103.618-103.724 49-163-33.8 128.1-109 174.089-195 247l-58 65 31-73c-53.3 28.77-84.683 85.04-70 162C44.967 700.42 305.887 498.433 329 420c-50.88 63.216-125.838 106.987-197 149 15.2-46.783 125.457-120.18 70-188-35.283-43.149-152.249-15.04-144 48 3.42 26.137 23 30.948 34 48-227.541-100.062 59.5-205.094 103-265 63.509-87.468 13.533-172.431 142-209m-48 107c-3.823 34.844 18.466 71.212 54 55v-1c-6.141-25.916-27.468-48.6-54-54m133 3c-16.884 11.826-32.66 26.931-36 52l4 3c23.566.96 46.853-32.069 32-55"/></svg>