<svg xmlns="http://www.w3.org/2000/svg" width="3375" height="808" viewBox="0 0 3375 808"><path class="cls-1" d="M343 2c34.035.179 56.842 11.915 74 29 60.316 60.058 24.534 146.026 51 233 9.793 32.18 30.864 58.857 55 77 16.684 12.541 41.462 20.653 49 42 8.138 23.046-2.788 50.221-10 65-19.563 40.09-85.025 112.525-133 120l2-3c23.946-10.861 74.37-73.506 67-115-3.486-19.626-11.669-31.877-18-47l-2 1c-3.43 108.468-125.419 191.554-191 244l-41 41c-5.977 7.672-11.82 22.982-21 27 8.951-28.417 21.075-49.2 31-73-37.268 23.176-68.021 58.722-77 110-3.81 21.76 5.3 37.024 7 53h-1l-1-2c-32.572-27.223-40.483-102.506-21-150 25.783-62.853 79.109-94.22 118-143a338.8 338.8 0 0 0 52-90l-45 50c-32.769 26.393-70.433 43.307-108 66l-46 33c20.533-41 134.967-146.266 59-199-75.62-52.493-190.855 66.476-98 104v2c-40.583-8-97.155-68.925-75-123 23.811-58.117 104.949-76.262 151-113 29.508-23.541 48.624-61.474 60-103 7.832-28.589 8.847-56.757 22-79 13.526-22.873 35.765-43.091 63-52Zm595 338h-44l1-253h202c32.17 16.257 35 40.3 35 90 0 17.6 2 39.1-4 51-19 37.711-94.6 26-150 26-13.082 0-30.081-1.385-40 2zm560-253q.495 126.487 1 253c-13.67 1.075-32.47 2.475-45-1 1.75-12.087 2.97-95.287-2-99h-154l-3 2q.495 48.995 1 98h-44q.495-126.487 1-253l42 1c-.18 10.1-.04 98.972 4 102l39 1c27.04 0 98.86 6.826 117-3q.495-50.495 1-101zm221 0 56 1 121 252h-54l-94-206c-1.33.667-2.67 1.333-4 2q-47.49 101.989-95 204h-53v-3q61.5-124.987 123-250m510 253h-49q-70.995-89.491-142-179c-3.02 1.259-1.2-.018-3 2v177l-44-1q1.005-125.988 2-252l47 1c4.44 14.306 20.4 25.81 29 37q39 48.995 78 98c9.34 12.322 22.57 40.023 38 45V133c0-14.881-1.76-34.347 2-46l41 1zm196 0V197c0-17.761 4.2-47.205-2-61-27.09.31-72.81 6.682-94-3q.495-23 1-46l235 1c1.44 12.97 3.71 38.391-2 48l-93 1q-.495 101.49-1 203zm347-253h49c63.76 23.962 141.88 78.871 102 174-18.02 42.972-55.03 63.528-101 79-23.08 7.768-57.44-3.147-71-8-58.71-21.01-113.23-84.1-80-166 11-27.114 36.11-49.456 61-63 10.68-5.812 32.6-6.732 40-16m561 253h-51q.495-88.491 1-177h-1c-11.34 6.946-17.24 21.372-25 32q-32.49 43-65 86l-33-1q-41.49-55.995-83-112c-.67.333-1.33.667-2 1v171h-50q.495-126.487 1-253h55c3.9 11.9 84.17 98.358 97 108h4q33.99-38 68-76c8.52-10.567 22.73-18.465 28-32l55 1zM293 109c-6.176 39.027 15.164 64.494 53 57v-4c-9.368-27.635-26.493-42.529-53-53m133 3c-10.476 10.6-44.563 35.541-34 55l2 1c22.5.616 47.622-35.8 32-56m512 17c-4.558 8.169-4.094 71.757-1 83h112c13 0 35.09 2.815 43-3v-77l-3-3zm1848 2-30 8c-21.47 10.368-40.38 30.866-48 55-20.87 66.116 48.84 120.751 112 106 100.41-23.452 87.02-170.938-34-169M1028 721l-38-1-64-184c-5.472-14.966-25.049-52.683-22-68h45l44 120c5.207 13.157 6.757 32.616 16 42 2.7-1.6 1.38-.339 3-3q28.995-79.493 58-159l43 1q21 57.494 42 115c5.19 12.956 7.54 39.079 18 47 .67-.333 1.33-.667 2-1q28.995-80.993 58-162l46 1-88 252h-37q-30.495-86.491-61-173c-11.17 3.882-12.67 27.116-17 38q-15.495 43.5-31 87c-5.41 14.838-15.16 30.366-17 48m364-253 41 1v252l-43-1q.495-103.989 1-208zm429 253c-11.42.4-47.56 3.972-51-4q-58.5-61.494-117-123c.33-.667.67-1.333 1-2l113-1c.25-12.8 2.9-70.5-2-76l-41-1c-25.33 0-105.33-5.585-122 2v143q-.495 31-1 62h-45q.495-126.488 1-253c52.7-.447 208.03-9.024 235 11 8.08 6 17.33 19.064 20 30 4.77 19.519.28 89.663-5 99-13.64 24.114-26.11 19.5-56 27v1q34.995 40 70 80zm90-253 218 1q-.495 22.5-1 45h-164c-14.19 0-48.39 4.538-55-4q1.005-21 2-42m1 106 180 1 3 2c-2.76 11.089 1.58 29.76-2 38h-137c-13.09 0-40.97 3.81-47-4v-33Zm-2 147q.495-20.5 1-41h218q-.495 20.5-1 41z"/></svg>